<?xml version="1.0" standalone="no"?>
<!DOCTYPE svg PUBLIC "-//W3C//DTD SVG 20010904//EN"
 "http://www.w3.org/TR/2001/REC-SVG-20010904/DTD/svg10.dtd">
<svg version="1.0" xmlns="http://www.w3.org/2000/svg"
 width="800.000000pt" height="800.000000pt" viewBox="0 0 800.000000 800.000000"
 preserveAspectRatio="xMidYMid meet">
<metadata>
Created by potrace 1.14, written by Peter Selinger 2001-2017
</metadata>
<g transform="translate(0.000000,800.000000) scale(0.100000,-0.100000)"
fill="#000000" stroke="none">
<path d="M0 4000 l0 -4000 4000 0 4000 0 0 4000 0 4000 -4000 0 -4000 0 0
-4000z m1799 143 c183 -516 336 -941 340 -945 6 -7 632 1724 631 1745 0 4 -41
6 -92 5 l-92 -3 -220 -622 c-121 -342 -224 -619 -227 -615 -4 4 -19 42 -34 85
l-28 78 214 604 214 605 223 0 c122 0 222 -1 222 -2 0 -2 -173 -484 -384
-1073 l-384 -1070 -40 -3 c-37 -3 -40 -1 -54 35 -8 21 -170 476 -359 1010
l-344 973 -92 0 c-51 0 -93 -3 -93 -6 0 -4 673 -1883 718 -2001 3 -10 -13 -13
-60 -13 l-64 0 -377 1053 c-208 578 -380 1062 -384 1075 l-5 22 219 0 220 0
332 -937z m2491 908 c236 -71 402 -239 441 -446 25 -135 -13 -334 -86 -444
l-36 -54 55 -51 c104 -98 168 -237 185 -398 21 -214 -37 -385 -179 -529 -82
-82 -166 -131 -295 -171 -67 -21 -91 -22 -567 -26 l-498 -3 0 525 0 526 428 0
c461 0 514 -5 608 -53 78 -40 130 -91 166 -165 31 -63 33 -72 33 -177 0 -100
-3 -115 -28 -166 -51 -105 -156 -177 -287 -198 -36 -6 -190 -11 -342 -11
l-278 0 0 240 0 240 60 0 60 0 0 -175 0 -175 253 0 c184 1 262 4 290 14 61 22
107 65 134 124 35 74 30 177 -11 247 -29 49 -92 96 -156 117 -23 7 -169 13
-422 15 l-388 5 0 -407 0 -406 423 3 c362 4 431 6 482 21 105 30 186 76 250
141 103 105 145 211 145 366 -1 210 -85 365 -252 463 l-64 37 61 63 c120 124
171 304 130 462 -32 122 -121 227 -241 285 -115 56 -153 60 -561 60 l-373 0 0
-346 0 -345 368 3 367 3 54 30 c77 42 104 94 99 192 -3 64 -7 76 -33 104 -62
66 -96 73 -337 77 l-218 4 0 -126 0 -126 -60 0 -60 0 0 186 0 185 294 -3 294
-3 78 -40 c64 -33 85 -50 115 -93 90 -129 59 -339 -63 -432 -100 -75 -92 -74
-580 -78 l-438 -3 0 471 0 471 453 -3 c435 -4 455 -5 527 -27z m1470 -301 l0
-330 -60 0 -60 0 0 265 0 265 -90 0 -90 0 0 -345 0 -345 545 0 545 0 0 410 0
410 210 0 210 0 0 -1075 0 -1075 -210 0 -210 0 0 460 0 460 -545 0 -545 0 0
-400 0 -400 90 0 90 0 0 320 0 320 60 0 60 0 0 -380 0 -380 -215 0 -215 0 2
523 3 522 665 0 665 0 3 -462 2 -463 90 0 90 0 0 950 0 950 -90 0 -90 0 0
-405 0 -405 -670 0 -670 0 0 463 c0 255 3 467 7 470 3 4 100 7 215 7 l208 0 0
-330z"/>
</g>
</svg>
